#!OML:ASF H:\Dans Jumps\Project 1\Capture day 1\Session 1\subject.ASF
:FULLY-SPECIFIED
:DEGREES
542
root 0.697712 17.799 6.36053 8.59497 -0.0784217 -2.10614
lowerback -3.11105 0.729663 -0.013578
upperback 1.97925 0.942932 0.901392
thorax 3.76627 0.456403 0.995488
lowerneck -10.5779 -0.231631 -1.71474
upperneck 32.9858 -0.457427 1.71013
head 12.7115 -0.188634 0.899722
rclavicle -3.80253e-015 1.29521e-015
rhumerus -29.1789 -17.0051 -79.5464
rradius 26.958
rwrist 32.3931
rhand -20.3669 -25.7707
rfingers 7.12502
rthumb 5.98564 -55.6662
lclavicle -3.80253e-015 1.29521e-015
lhumerus -32.2496 2.35974 82.7931
lradius 21.4685
lwrist 10.6507
lhand -26.7467 -6.73646
lfingers 7.12502
lthumb -0.175418 23.2432
rfemur -13.9373 -2.69615 19.9822
rtibia 17.7565
rfoot -10.9631 1.29005
rtoes 16.5854
lfemur -13.4743 6.95375 -18.325
ltibia 17.0474
lfoot -8.04161 6.3754
ltoes 2.59028
543
root 0.690305 17.7976 6.38481 8.56363 -0.114557 -2.12529
lowerback -3.19521 0.741951 0.0192213
upperback 1.95728 0.957389 0.904367
thorax 3.7914 0.464345 0.982183
lowerneck -10.5347 -0.240036 -1.74153
upperneck 32.9389 -0.467177 1.72145
head 12.6829 -0.194859 0.906918
rclavicle 1.21391e-014 9.24659e-015
rhumerus -29.2211 -16.9676 -79.5606
rradius 26.9605
rwrist 32.402
rhand -20.3188 -25.7359
rfingers 7.12502
rthumb 6.03202 -55.63
lclavicle 1.21391e-014 9.24659e-015
lhumerus -32.0492 2.62263 82.6547
lradius 21.5529
lwrist 10.8447
lhand -26.8129 -6.80787
lfingers 7.12502
lthumb -0.239383 23.1717
rfemur -13.813 -2.70752 20.0272
rtibia 17.7471
rfoot -11.0401 1.33431
rtoes 16.5942
lfemur -13.347 6.94821 -18.2646
ltibia 17.0661
lfoot -8.10788 6.45499
ltoes 2.56255
544
root 0.682711 17.7961 6.40846 8.53029 -0.151776 -2.13945
lowerback -3.27779 0.755671 0.046026
upperback 1.9374 0.974094 0.904335
thorax 3.81771 0.473286 0.969318
lowerneck -10.5041 -0.248739 -1.77002
upperneck 32.8965 -0.479137 1.73998
head 12.6589 -0.201316 0.91696
rclavicle 4.82674e-015 3.52843e-015
rhumerus -29.2495 -16.9683 -79.5658
rradius 26.9431
rwrist 32.4224
rhand -20.262 -25.707
rfingers 7.12502
rthumb 6.08686 -55.5996
lclavicle 4.82674e-015 3.52843e-015
lhumerus -31.8476 2.84904 82.5339
lradius 21.6309
lwrist 11.0575
lhand -26.9296 -6.97377
lfingers 7.12502
lthumb -0.352074 23.0057
rfemur -13.6896 -2.70784 20.067
rtibia 17.7393
rfoot -11.1149 1.36614
rtoes 16.5838
lfemur -13.2176 6.94222 -18.2095
ltibia 17.0815
lfoot -8.17297 6.53697
ltoes 2.52763
545
root 0.675046 17.7944 6.43151 8.49261 -0.190389 -2.14561
lowerback -3.35551 0.768874 0.0638381
upperback 1.9196 0.990651 0.90089
thorax 3.84336 0.481965 0.957945
lowerneck -10.4945 -0.253047 -1.7883
upperneck 32.8679 -0.484805 1.75196
head 12.6451 -0.204524 0.923711
rclavicle -7.29136e-015 -4.50372e-015
rhumerus -29.261 -17.0032 -79.5637
rradius 26.9037
rwrist 32.4556
rhand -20.2036 -25.6799
rfingers 7.12502
rthumb 6.14327 -55.5709
lclavicle -7.29136e-015 -4.50372e-015
lhumerus -31.6511 3.04551 82.428
lradius 21.7059
lwrist 11.275
lhand -27.0741 -7.16568
lfingers 7.12502
lthumb -0.491656 22.8135
rfemur -13.5673 -2.69854 20.0975
rtibia 17.739
rfoot -11.1897 1.38736
rtoes 16.5805
lfemur -13.0796 6.93153 -18.1629
ltibia 17.086
lfoot -8.23328 6.62251
ltoes 2.48671
546
root 0.667201 17.7928 6.45395 8.45175 -0.228908 -2.14108
lowerback -3.4294 0.781077 0.0697651
upperback 1.90318 1.00663 0.892842
thorax 3.86816 0.490113 0.948438
lowerneck -10.4958 -0.253902 -1.80362
upperneck 32.8478 -0.485983 1.76382
head 12.637 -0.205383 0.930608
rclavicle 6.92252e-015 6.29588e-015
rhumerus -29.2602 -17.063 -79.5565
rradius 26.8471
rwrist 32.4998
rhand -20.1384 -25.6641
rfingers 7.12502
rthumb 6.2062 -55.5531
lclavicle 6.92252e-015 6.29588e-015
lhumerus -31.4747 3.20878 82.3363
lradius 21.7952
lwrist 11.4854
lhand -27.2245 -7.35378
lfingers 7.12502
lthumb -0.63694 22.625
rfemur -13.4484 -2.67885 20.1164
rtibia 17.7489
rfoot -11.2669 1.39649
rtoes 16.5707
lfemur -12.9329 6.91974 -18.1274
ltibia 17.0756
lfoot -8.28712 6.7049
ltoes 2.44971
547
root 0.659225 17.7914 6.47581 8.41219 -0.268611 -2.12465
lowerback -3.50207 0.791029 0.0625557
upperback 1.88539 1.02045 0.880591
thorax 3.89075 0.496911 0.941808
lowerneck -10.5031 -0.252507 -1.81863
upperneck 32.8353 -0.483783 1.77516
head 12.6333 -0.204789 0.937795
rclavicle -6.69384e-015 1.97076e-015
rhumerus -29.2512 -17.1292 -79.548
rradius 26.7778
rwrist 32.5413
rhand -20.0862 -25.6561
rfingers 7.12502
rthumb 6.25657 -55.5437
lclavicle -6.69384e-015 1.97076e-015
lhumerus -31.3204 3.35835 82.2523
lradius 21.8957
lwrist 11.6678
lhand -27.3582 -7.5056
lfingers 7.12502
lthumb -0.766052 22.4728
rfemur -13.3381 -2.65465 20.1222
rtibia 17.7693
rfoot -11.3385 1.39988
rtoes 16.5303
lfemur -12.7822 6.90655 -18.1049
ltibia 17.051
lfoot -8.33144 6.78385
ltoes 2.41438
548
root 0.651177 17.7901 6.49705 8.37233 -0.311679 -2.10101
lowerback -3.57257 0.799796 0.0466886
upperback 1.86644 1.03326 0.86591
thorax 3.9108 0.503027 0.93743
lowerneck -10.5035 -0.249986 -1.8334
upperneck 32.8239 -0.47968 1.78504
head 12.6286 -0.203557 0.944627
rclavicle 1.99564e-015 -5.23149e-015
rhumerus -29.2388 -17.1966 -79.5368
rradius 26.7022
rwrist 32.5837
rhand -20.0321 -25.659
rfingers 7.12502
rthumb 6.3088 -55.545
lclavicle 1.99564e-015 -5.23149e-015
lhumerus -31.1894 3.49464 82.1758
lradius 22.015
lwrist 11.8262
lhand -27.4553 -7.63438
lfingers 7.12502
lthumb -0.859864 22.3436
rfemur -13.2339 -2.62553 20.1194
rtibia 17.798
rfoot -11.4103 1.40268
rtoes 16.5053
lfemur -12.6275 6.89234 -18.0902
ltibia 17.0154
lfoot -8.36805 6.86128
ltoes 2.38255
549
root 0.643143 17.789 6.51771 8.33062 -0.358269 -2.07365
lowerback -3.64113 0.808829 0.0279211
upperback 1.84698 1.04672 0.848705
thorax 3.92922 0.509426 0.932101
lowerneck -10.4886 -0.249561 -1.84998
upperneck 32.8094 -0.47934 1.79758
head 12.6193 -0.203936 0.95222
rclavicle 1.95605e-014 5.5023e-015
rhumerus -29.2294 -17.2597 -79.5242
rradius 26.6291
rwrist 32.6253
rhand -19.985 -25.6652
rfingers 7.12502
rthumb 6.35429 -55.5499
lclavicle 1.95605e-014 5.5023e-015
lhumerus -31.0752 3.60314 82.1094
lradius 22.1475
lwrist 11.9612
lhand -27.5093 -7.63267
lfingers 7.12502
lthumb -0.911973 22.3451
rfemur -13.1337 -2.60017 20.1119
rtibia 17.8336
rfoot -11.4811 1.41393
rtoes 16.4767
lfemur -12.4683 6.87678 -18.0796
ltibia 16.9728
lfoot -8.39793 6.93991
ltoes 2.34476
550
root 0.635211 17.7879 6.53793 8.28853 -0.40682 -2.04519
lowerback -3.70801 0.817882 0.00832747
upperback 1.82616 1.06032 0.831011
thorax 3.94526 0.515889 0.926714
lowerneck -10.4635 -0.248616 -1.86025
upperneck 32.7934 -0.477976 1.80406
head 12.6073 -0.203894 0.956467
rclavicle 1.76142e-014 3.90115e-015
rhumerus -29.2199 -17.3232 -79.508
rradius 26.5538
rwrist 32.6779
rhand -19.9516 -25.6703
rfingers 7.12502
rthumb 6.3865 -55.554
lclavicle 1.76142e-014 3.90115e-015
lhumerus -30.9699 3.70092 82.0482
lradius 22.2672
lwrist 12.0504
lhand -27.5644 -7.7056
lfingers 7.12502
lthumb -0.965247 22.272
rfemur -13.0366 -2.58868 20.1022
rtibia 17.8723
rfoot -11.5543 1.44509
rtoes 16.4719
lfemur -12.3084 6.86061 -18.071
ltibia 16.9289
lfoot -8.42569 7.0191
ltoes 2.30993
551
root 0.627281 17.7868 6.55763 8.24614 -0.458671 -2.01591
lowerback -3.77419 0.826005 -0.0148567
upperback 1.80756 1.07285 0.814584
thorax 3.96313 0.521696 0.924605
lowerneck -10.4375 -0.243249 -1.86171
upperneck 32.7772 -0.468512 1.79881
head 12.5948 -0.200684 0.955748
rclavicle -6.56921e-016 -3.14949e-015
rhumerus -29.1994 -17.3763 -79.4928
rradius 26.4774
rwrist 32.7377
rhand -19.9195 -25.6808
rfingers 7.12502
rthumb 6.4175 -55.5636
lclavicle -6.56921e-016 -3.14949e-015
lhumerus -30.8648 3.78568 81.9956
lradius 22.3726
lwrist 12.1112
lhand -27.625 -7.795
lfingers 7.12502
lthumb -1.02372 22.1823
rfemur -12.9423 -2.58493 20.0908
rtibia 17.9116
rfoot -11.6295 1.49075
rtoes 16.4913
lfemur -12.1513 6.84266 -18.0638
ltibia 16.8874
lfoot -8.44938 7.10311
ltoes 2.26803
552
root 0.619428 17.7856 6.57709 8.20308 -0.509682 -1.9903
lowerback -3.84514 0.832205 -0.0356149
upperback 1.79547 1.08256 0.800695
thorax 3.99049 0.526082 0.923737
lowerneck -10.4253 -0.233036 -1.85445
upperneck 32.763 -0.449724 1.78079
head 12.5857 -0.193854 0.9499
rclavicle 3.45186e-014 8.34274e-015
rhumerus -29.1585 -17.4237 -79.4811
rradius 26.3983
rwrist 32.8076
rhand -19.8904 -25.7019
rfingers 7.12502
rthumb 6.4456 -55.5838
lclavicle 3.45186e-014 8.34274e-015
lhumerus -30.7536 3.87544 81.9468
lradius 22.456
lwrist 12.1361
lhand -27.6929 -7.92012
lfingers 7.12502
lthumb -1.0893 22.0568
rfemur -12.8473 -2.59937 20.083
rtibia 17.9484
rfoot -11.7029 1.55842
rtoes 16.5323
lfemur -11.9976 6.82551 -18.0534
ltibia 16.8527
lfoot -8.47624 7.18842
ltoes 2.22186
553
root 0.611645 17.7845 6.59607 8.16419 -0.557888 -1.96915
lowerback -3.92371 0.836553 -0.0523319
upperback 1.78839 1.0895 0.788368
thorax 4.02745 0.529121 0.92223
lowerneck -10.4253 -0.216679 -1.8251
upperneck 32.7471 -0.420436 1.74226
head 12.5783 -0.18222 0.933719
rclavicle 1.66249e-014 9.96408e-015
rhumerus -29.0954 -17.47 -79.4738
rradius 26.3163
rwrist 32.89
rhand -19.858 -25.7272
rfingers 7.12502
rthumb 6.47692 -55.6082
lclavicle 1.66249e-014 9.96408e-015
lhumerus -30.6371 3.97314 81.8994
lradius 22.5262
lwrist 12.1385
lhand -27.7495 -8.01243
lfingers 7.12502
lthumb -1.14396 21.9642
rfemur -12.7569 -2.63344 20.0805
rtibia 17.9811
rfoot -11.7741 1.64519
rtoes 16.5706
lfemur -11.8553 6.80805 -18.0394
ltibia 16.8274
lfoot -8.50464 7.27319
ltoes 2.17656
554
root 0.603787 17.7832 6.61431 8.12807 -0.602953 -1.95722
lowerback -4.00589 0.839997 -0.0612578
upperback 1.78488 1.09469 0.778877
thorax 4.07028 0.531421 0.919273
lowerneck -10.4277 -0.197417 -1.78507
upperneck 32.724 -0.386703 1.6954
head 12.5683 -0.168341 0.912997
rclavicle 2.82181e-015 7.67806e-015
rhumerus -29.0224 -17.5061 -79.4712
rradius 26.2454
rwrist 32.9732
rhand -19.8236 -25.7531
rfingers 7.12502
rthumb 6.51013 -55.633
lclavicle 2.82181e-015 7.67806e-015
lhumerus -30.5221 4.07268 81.8544
lradius 22.5906
lwrist 12.1346
lhand -27.7903 -8.09362
lfingers 7.12502
lthumb -1.18335 21.8828
rfemur -12.6689 -2.67391 20.0887
rtibia 18.0076
rfoot -11.8432 1.73851
rtoes 16.6117
lfemur -11.7254 6.7906 -18.0154
ltibia 16.8135
lfoot -8.53739 7.35762
ltoes 2.13492
555
root 0.595838 17.7818 6.6317 8.09627 -0.643844 -1.95226
lowerback -4.09033 0.842213 -0.0643946
upperback 1.78438 1.0978 0.771972
thorax 4.11761 0.532781 0.915672
lowerneck -10.4335 -0.179112 -1.74843
upperneck 32.6936 -0.355195 1.65378
head 12.556 -0.155178 0.894533
rclavicle 1.02467e-014 3.16813e-015
rhumerus -28.9438 -17.5201 -79.4748
rradius 26.1933
rwrist 33.0434
rhand -19.7928 -25.7722
rfingers 7.12502
rthumb 6.5398 -55.6513
lclavicle 1.02467e-014 3.16813e-015
lhumerus -30.4034 4.17116 81.8133
lradius 22.6471
lwrist 12.1114
lhand -27.8176 -8.11941
lfingers 7.12502
lthumb -1.20978 21.8569
rfemur -12.5859 -2.72111 20.1058
rtibia 18.0293
rfoot -11.8993 1.83515
rtoes 16.6182
lfemur -11.6093 6.77497 -17.984
ltibia 16.8097
lfoot -8.57376 7.43696
ltoes 2.09801
